<svg focusable="false" xmlns="http://www.w3.org/2000/svg" viewBox="0 0 46 45" stroke="currentcolor" fill="currentcolor"><path d="M40.5 14H38a8.78 8.78 0 0 0 2-5.53A8.6 8.6 0 0 0 31.5 0 8.34 8.34 0 0 0 23 8.15 8.33 8.33 0 0 0 14.53 0a8.59 8.59 0 0 0-8.47 8.47 8.73 8.73 0 0 0 2 5.53H5.5A5.51 5.51 0 0 0 0 19.5v7A2.5 2.5 0 0 0 2.5 29H4v10.5A5.51 5.51 0 0 0 9.5 45h27a5.51 5.51 0 0 0 5.5-5.5V29h1.5a2.5 2.5 0 0 0 2.5-2.5v-7a5.51 5.51 0 0 0-5.5-5.5zm.5 5.5V24H27v-5h13.5a.5.5 0 0 1 .5.5zM27 8.15A4.34 4.34 0 0 1 31.5 4 4.6 4.6 0 0 1 36 8.47a4.6 4.6 0 0 1-4.31 4.63H27zM14.53 4A4.32 4.32 0 0 1 19 8.15v4.95h-4.63a4.55 4.55 0 0 1 .16-9.1zM5 19.5a.5.5 0 0 1 .5-.5H19v5H5zM9.5 40a.5.5 0 0 1-.5-.5V29h10v11zm27.5-.5a.5.5 0 0 1-.5.5H27V29h10z"/></svg>