<svg focusable="false" xmlns="http://www.w3.org/2000/svg" viewBox="0 0 63.8 52.5"><path d="M49.7 44.9l4.5-1.9-.1-9.6c-.1-5.5-4.7-10-10.2-10h-1.2l1.1-2.4h15.5c2.2 0 4 1.8 4 4v5.5c-8.4 2.5-7.9 12-7.6 14.5h-6z"/><path d="M59.3 21.4c1.9 0 3.5 1.6 3.5 3.5V30c-7.9 2.6-7.9 11.2-7.7 14.4h-3l2-.9.6-.3v-.7l-.1-9.3c-.1-5.8-4.9-10.5-10.7-10.5h-.4l.6-1.4h15.2m0-.9H43.5L42 23.7h2c5.3 0 9.6 4.2 9.7 9.5l.1 9.3-6.5 2.8h9s-2.2-12 7.5-14.6v-5.9c0-2.4-2-4.4-4.5-4.4zM47.2 15c-1 0-1.9-.2-2.8-.6-.1-3.4-1.6-6.6-4.1-8.8.9-3.1 3.7-5.2 7-5.2 1.9 0 3.8.8 5.1 2.1s2.1 3.2 2.1 5.1c0 4.2-3.3 7.4-7.3 7.4z"/><path d="M47.2 1C50.9 1 54 4 54 7.8c0 3.7-3 6.8-6.8 6.8-.8 0-1.6-.2-2.3-.4-.2-3.3-1.7-6.4-4.1-8.6 1-2.8 3.5-4.6 6.4-4.6m0-1c-3.5 0-6.6 2.4-7.5 5.8 2.6 2.2 4.2 5.5 4.2 9 1 .5 2.2.8 3.3.8 4.3 0 7.8-3.5 7.8-7.8S51.5 0 47.2 0zM8.2 44.9c.2-2.5.7-11.9-7.7-14.4V25c0-2.3 1.8-4.1 4-4.1H20l1.1 2.4H20c-5.5 0-10.1 4.5-10.2 10l-.1 9.6 4.5 1.9h-6z"/><path d="M4.5 21.4h15.2l.6 1.4H20c-5.8 0-10.6 4.7-10.7 10.5l-.1 9.3v.7l.6.3 2 .9H8.7c.3-3.3.2-11.8-7.7-14.4V24.9c0-1.9 1.6-3.5 3.5-3.5m0-1c-2.5 0-4.5 2-4.5 4.5v6c9.7 2.6 7.6 14.5 7.6 14.5h9l-6.5-2.8.1-9.3c.1-5.3 4.4-9.5 9.7-9.5h1.9l-1.6-3.4H4.5z"/><g><path d="M17 15.1h-.3c-3.3 0-6.2-2.2-7.1-5.5-.5-1.9-.2-3.8.8-5.5 1-1.7 2.6-2.9 4.4-3.3.6-.2 1.2-.2 1.8-.2 3.2 0 6 2.1 7 5.2-2.5 2.3-4 5.4-4.1 8.8-.8.2-1.7.4-2.5.5z"/><path d="M16.6 1C19.5 1 22 2.8 23 5.5c-2.4 2.3-3.8 5.3-4 8.6-.6.2-1.2.3-1.8.4h-.6c-3.1 0-5.8-2.1-6.6-5.1-.9-3.6 1.2-7.3 4.9-8.3.6 0 1.2-.1 1.7-.1m0-1c-.6 0-1.3.1-1.9.2C10.5 1.3 8 5.6 9.1 9.7c.9 3.4 4 5.8 7.5 5.8 1.2 0 2.3-.3 3.3-.8 0-3.5 1.5-6.7 4.2-9-.9-3.4-4-5.7-7.5-5.7z"/></g><g><path d="M23.4 52l.1-6.5c0-4.4-3.4-7.9-7.7-8.1v-5.3c0-2.8 2.3-5 5-5h22.4c2.8 0 5 2.2 5 5v5.5c-4.3.3-7.7 3.8-7.7 8.1V52H23.4z"/><path d="M20.7 27.6h22.4c1.2 0 2.3.5 3.2 1.3.8.8 1.3 2 1.3 3.2v5c-4.3.5-7.7 4.1-7.7 8.6v5.8h-16l.1-5.8v-.1c0-4.5-3.4-8.1-7.7-8.6V32.1c0-2.5 2-4.5 4.4-4.5m0-1c-3 0-5.4 2.4-5.5 5.4V37.9h.1c4.2 0 7.6 3.4 7.6 7.6v.1l-.1 6.8h18v-6.8c0-4.2 3.4-7.6 7.6-7.6h.1v-6c0-3-2.4-5.5-5.5-5.5l-22.3.1c.1 0 .1 0 0 0z"/></g><g><path d="M31.9 22.2c-4 0-7.3-3.3-7.3-7.3s3.3-7.3 7.3-7.3 7.3 3.3 7.3 7.3-3.3 7.3-7.3 7.3z"/><path d="M31.9 8.1c3.7 0 6.8 3 6.8 6.8s-3 6.8-6.8 6.8-6.8-3-6.8-6.8 3.1-6.8 6.8-6.8m0-1c-4.3 0-7.8 3.5-7.8 7.8s3.5 7.8 7.8 7.8 7.8-3.5 7.8-7.8-3.5-7.8-7.8-7.8z"/></g></svg>